<svg width="21" height="21" viewBox="0 0 21 21" fill="none" xmlns="http://www.w3.org/2000/svg">
<g id="vuesax/bold/call-calling">
<g id="call-calling">
<path id="Vector" d="M15.1373 9.40609C14.783 9.40609 14.5028 9.11767 14.5028 8.77156C14.5028 8.46665 14.1979 7.83211 13.687 7.27998C13.1843 6.74433 12.6322 6.43118 12.1707 6.43118C11.8163 6.43118 11.5361 6.14276 11.5361 5.79665C11.5361 5.45054 11.8246 5.16211 12.1707 5.16211C12.9947 5.16211 13.86 5.60711 14.6182 6.40646C15.3269 7.15637 15.7801 8.08757 15.7801 8.76332C15.7801 9.11767 15.4917 9.40609 15.1373 9.40609Z" fill="#2E3947"/>
<path id="Vector_2" d="M18.1123 9.40792C17.758 9.40792 17.4778 9.11949 17.4778 8.77338C17.4778 5.84792 15.0962 3.47458 12.179 3.47458C11.8246 3.47458 11.5444 3.18616 11.5444 2.84004C11.5444 2.49393 11.8246 2.19727 12.1707 2.19727C15.7967 2.19727 18.7468 5.14745 18.7468 8.77338C18.7468 9.11949 18.4584 9.40792 18.1123 9.40792Z" fill="#2E3947"/>
<path id="Vector_3" d="M9.7235 12.869L8.19896 14.3936C7.87757 14.715 7.36665 14.715 7.03702 14.4018C6.94637 14.3112 6.85572 14.2288 6.76507 14.1381C5.91628 13.2811 5.14989 12.3828 4.4659 11.4434C3.79016 10.5039 3.24627 9.56449 2.85072 8.63329C2.4634 7.69384 2.26562 6.7956 2.26562 5.93856C2.26562 5.37819 2.36451 4.84255 2.56229 4.3481C2.76007 3.84541 3.07322 3.38393 3.50998 2.9719C4.03739 2.45273 4.61424 2.19727 5.22405 2.19727C5.45479 2.19727 5.68553 2.24671 5.89155 2.3456C6.10581 2.44449 6.29535 2.59282 6.44368 2.80708L8.35554 5.50181C8.50387 5.70782 8.611 5.89736 8.68517 6.07866C8.75933 6.25171 8.80054 6.42477 8.80054 6.58134C8.80054 6.77912 8.74285 6.9769 8.62748 7.16644C8.52035 7.35597 8.36378 7.55375 8.166 7.75153L7.5397 8.40255C7.44905 8.4932 7.40785 8.60033 7.40785 8.73218C7.40785 8.7981 7.41609 8.85579 7.43257 8.92171C7.4573 8.98764 7.48202 9.03708 7.4985 9.08653C7.64683 9.35847 7.9023 9.71283 8.26489 10.1413C8.63572 10.5699 9.03128 11.0066 9.4598 11.4434C9.5422 11.5258 9.63285 11.6082 9.71526 11.6906C10.0449 12.012 10.0531 12.5394 9.7235 12.869Z" fill="#2E3947"/>
<path id="Vector_4" d="M18.7221 15.6534C18.7221 15.8842 18.6809 16.1232 18.5985 16.3539C18.5738 16.4198 18.5491 16.4858 18.5161 16.5517C18.376 16.8484 18.1947 17.1285 17.9557 17.3922C17.5519 17.8372 17.1069 18.1586 16.6043 18.3647C16.596 18.3647 16.5878 18.3729 16.5795 18.3729C16.0933 18.5707 15.5659 18.6778 14.9973 18.6778C14.1568 18.6778 13.2585 18.48 12.3108 18.0762C11.3631 17.6724 10.4155 17.1285 9.47601 16.4446C9.15462 16.2056 8.83323 15.9666 8.52832 15.7111L11.223 13.0164C11.4538 13.1895 11.6598 13.3213 11.8329 13.412C11.8741 13.4284 11.9235 13.4532 11.9812 13.4779C12.0471 13.5026 12.113 13.5108 12.1872 13.5108C12.3273 13.5108 12.4344 13.4614 12.5251 13.3708L13.1514 12.7527C13.3574 12.5467 13.5552 12.3901 13.7447 12.2912C13.9342 12.1758 14.1238 12.1182 14.3298 12.1182C14.4864 12.1182 14.6512 12.1511 14.8325 12.2253C15.0138 12.2995 15.2033 12.4066 15.4093 12.5467L18.137 14.4833C18.3513 14.6316 18.4996 14.8046 18.5903 15.0107C18.6727 15.2167 18.7221 15.4227 18.7221 15.6534Z" fill="#2E3947"/>
</g>
</g>
</svg>
