<svg width="21" height="21" viewBox="0 0 21 21" fill="none" xmlns="http://www.w3.org/2000/svg">
<g id="vuesax/bold/direct-notification">
<g id="direct-notification">
<path id="Vector" d="M16.2745 7.12999C17.6398 7.12999 18.7467 6.02314 18.7467 4.65777C18.7467 3.2924 17.6398 2.18555 16.2745 2.18555C14.9091 2.18555 13.8022 3.2924 13.8022 4.65777C13.8022 6.02314 14.9091 7.12999 16.2745 7.12999Z" fill="#2E3947"/>
<path id="Vector_2" d="M17.3787 11.019H14.651C13.8846 11.019 13.2006 11.4475 12.8545 12.1232L12.1952 13.4253C12.0387 13.7384 11.7255 13.928 11.3794 13.928H8.81653C8.57755 13.928 8.2232 13.8785 8.0007 13.417L7.34968 12.1232C7.00357 11.4393 6.31958 11.0107 5.55319 11.0107H2.80903C2.51236 11.019 2.26514 11.2662 2.26514 11.5629V14.1093C2.26514 16.9688 3.97097 18.6664 6.82227 18.6664H13.3819C16.0684 18.6664 17.7248 17.1913 17.9226 14.579V11.5629C17.9226 11.2662 17.6753 11.019 17.3787 11.019Z" fill="#2E3947"/>
<path id="Vector_3" d="M17.9226 9.10792V9.87431C17.7495 9.81662 17.5682 9.78366 17.3787 9.78366H14.651C13.4149 9.78366 12.3024 10.4676 11.7585 11.5719L11.1816 12.7009H9.01431L8.45394 11.5801C7.89357 10.4676 6.78931 9.78366 5.55319 9.78366H2.80903C2.61949 9.78366 2.43819 9.81662 2.26514 9.87431V7.55866C2.26514 5.04523 4.3006 3.00977 6.81403 3.00977H11.8244C12.3518 3.00977 12.7309 3.48773 12.632 3.99866C12.5001 4.65791 12.5578 5.37486 12.8792 6.13301C13.2501 6.99005 13.9423 7.68227 14.7993 8.0531C15.5575 8.37449 16.2744 8.43218 16.9337 8.30033C17.4446 8.20144 17.9226 8.58051 17.9226 9.10792Z" fill="#2E3947"/>
</g>
</g>
</svg>
