<svg width="200" height="200" viewBox="0 0 200 200" fill="none" xmlns="http://www.w3.org/2000/svg">
<g id="Frame 1000003285">
<rect width="200" height="200" rx="100" fill="white"/>
<g id="Group">
<g id="Group_2">
<path id="Vector" d="M123.185 140.388H88.0828C84.9047 140.388 82.3278 137.811 82.3278 134.633C82.3278 131.455 84.9047 128.878 88.0828 128.878H123.185C139.366 128.878 152.533 115.711 152.533 99.5302C152.533 83.3496 139.366 70.1825 123.185 70.1825C108.973 70.1825 97.0875 80.3361 94.4033 93.7752H123.185C126.364 93.7752 128.94 96.352 128.94 99.5302C128.94 102.708 126.364 105.285 123.185 105.285H82.3242V99.5302C82.3242 88.6143 86.576 78.3533 94.2923 70.6371C102.009 62.9208 112.27 58.6689 123.185 58.6689C134.101 58.6689 144.362 62.9208 152.079 70.6371C159.795 78.3533 164.047 88.6143 164.047 99.5302C164.047 110.446 159.795 120.707 152.079 128.423C144.362 136.14 134.101 140.388 123.185 140.388Z" fill="#8BD146"/>
<path id="Vector_2" d="M75.7157 124.046C64.7998 124.046 54.5389 119.794 46.8226 112.078C39.1063 104.358 34.8545 94.0968 34.8545 83.1845C34.8545 72.2721 39.1063 62.0076 46.8226 54.2913C54.5389 46.5751 64.7998 42.3232 75.7157 42.3232H110.818C113.996 42.3232 116.573 44.9001 116.573 48.0782C116.573 51.2564 113.996 53.8332 110.818 53.8332H75.7157C59.5316 53.8332 46.3681 67.0003 46.3681 83.1809C46.3681 99.3614 59.5351 112.529 75.7157 112.529C89.9099 112.529 101.781 102.497 104.487 89.2115H75.7157C72.5376 89.2115 69.9607 86.6346 69.9607 83.4565C69.9607 80.2783 72.5376 77.7015 75.7157 77.7015H116.577V83.4565C116.577 94.3652 112.318 104.587 104.587 112.235C96.8889 119.851 86.6352 124.046 75.7157 124.046Z" fill="#157EC0"/>
</g>
<g id="Group_3">
<path id="Vector_3" d="M35.1885 153.054C35.1885 150.098 37.411 148.287 40.0452 148.287C41.2012 148.287 42.4502 148.666 43.2125 149.246V150.51C42.4645 149.84 41.4624 149.307 40.0452 149.307C37.9443 149.307 36.4519 150.771 36.4519 153.054C36.4519 155.323 37.9443 156.862 40.0452 156.862C40.9435 156.862 41.7666 156.68 42.3751 156.329V154.257H40.5033V153.237H43.5955V156.923C43.0944 157.138 41.738 157.882 40.0452 157.882C37.411 157.882 35.1885 156.007 35.1885 153.054Z" fill="#157EC0"/>
<path id="Vector_4" d="M49.5658 148.482H50.3567L54.2865 157.62H53.0374L51.9422 155.061H47.923L46.8279 157.62H45.6396L49.5658 148.482ZM51.5306 154.073L49.9308 150.311L48.331 154.073H51.5306Z" fill="#157EC0"/>
<path id="Vector_5" d="M56.6387 148.482H57.8555V156.6H62.1682V157.62H56.6387V148.482Z" fill="#157EC0"/>
<path id="Vector_6" d="M64.5547 148.482H65.7715V156.6H70.0806V157.62H64.5547V148.482Z" fill="#157EC0"/>
<path id="Vector_7" d="M72.4717 148.482H78.0012V149.502H73.6921V152.29H77.2425V153.31H73.6921V156.6H78.0012V157.62H72.4717V148.482Z" fill="#157EC0"/>
<path id="Vector_8" d="M87.7451 148.482H93.2746V149.502H88.9656V152.29H92.5159V153.31H88.9656V156.6H93.2746V157.62H87.7451V148.482Z" fill="#8BD146"/>
<path id="Vector_9" d="M98.665 152.931L95.3759 148.482H96.7932L99.3987 152.061L102.033 148.482H103.389L100.1 152.945L103.572 157.62H102.154L99.3665 153.797L96.5498 157.62H95.1934L98.665 152.931Z" fill="#8BD146"/>
<path id="Vector_10" d="M104.807 153.054C104.807 150.098 107.029 148.287 109.663 148.287C110.819 148.287 112.068 148.666 112.831 149.246V150.51C112.083 149.84 111.081 149.307 109.663 149.307C107.562 149.307 106.07 150.771 106.07 153.054C106.07 155.323 107.562 156.801 109.663 156.801C111.081 156.801 112.086 156.268 112.831 155.599V156.862C112.068 157.442 110.819 157.822 109.663 157.822C107.029 157.822 104.807 156.007 104.807 153.054Z" fill="#8BD146"/>
<path id="Vector_11" d="M115.692 148.482H116.909V152.29H121.952V148.482H123.169V157.62H121.952V153.31H116.909V157.62H115.692V148.482Z" fill="#8BD146"/>
<path id="Vector_12" d="M129.449 148.482H130.24L134.169 157.62H132.92L131.825 155.061H127.806L126.711 157.62H125.522L129.449 148.482ZM131.413 154.073L129.814 150.311L128.214 154.073H131.413Z" fill="#8BD146"/>
<path id="Vector_13" d="M136.517 148.482H137.218L142.655 155.29V148.482H143.768V157.62H143.066L137.63 150.812V157.62H136.517V148.482Z" fill="#8BD146"/>
<path id="Vector_14" d="M146.547 153.054C146.547 150.098 148.769 148.287 151.404 148.287C152.56 148.287 153.809 148.666 154.571 149.246V150.51C153.823 149.84 152.821 149.307 151.404 149.307C149.303 149.307 147.81 150.771 147.81 153.054C147.81 155.323 149.303 156.862 151.404 156.862C152.302 156.862 153.125 156.68 153.733 156.329V154.257H151.862V153.237H154.954V156.923C154.453 157.138 153.096 157.882 151.404 157.882C148.769 157.882 146.547 156.007 146.547 153.054Z" fill="#8BD146"/>
<path id="Vector_15" d="M158.184 148.482H163.713V149.502H159.404V152.29H162.954V153.31H159.404V156.6H163.713V157.62H158.184V148.482Z" fill="#8BD146"/>
</g>
</g>
</g>
</svg>
