<svg width="21" height="21" viewBox="0 0 21 21" fill="none" xmlns="http://www.w3.org/2000/svg">
<g id="Frame 1000003262" clip-path="url(#clip0_773_2851)">
<g id="Group 1000002735">
<path id="Rectangle 6239" d="M4.99796 3.24405L10.4625 1.87793L16.8377 3.24405L18.6592 9.16392L16.8377 15.0838L10.4625 16.4499L4.54259 15.9945L3.63184 9.16392L4.99796 3.24405Z" fill="#2E3947"/>
<g id="Group 1000002734">
<path id="Vector" d="M2.26514 17.829L3.50768 13.213C2.5056 11.4148 2.18723 9.31655 2.61099 7.30315C3.03475 5.28976 4.17221 3.49632 5.81466 2.25193C7.4571 1.00754 9.49435 0.395681 11.5526 0.528619C13.6108 0.661557 15.5519 1.53038 17.0198 2.97566C18.4876 4.42093 19.3837 6.34572 19.5436 8.39681C19.7035 10.4479 19.1165 12.4877 17.8903 14.1419C16.664 15.7962 14.8809 16.9539 12.868 17.4026C10.8552 17.8513 8.74756 17.5609 6.93201 16.5847L2.26514 17.829ZM7.15704 14.8574L7.44566 15.0282C8.7607 15.8056 10.2967 16.1274 11.8142 15.9432C13.3317 15.7591 14.7455 15.0794 15.8353 14.0101C16.9251 12.9408 17.6296 11.5419 17.8392 10.0315C18.0487 8.52111 17.7514 6.98398 16.9937 5.65968C16.2359 4.33538 15.0603 3.2983 13.65 2.71004C12.2396 2.12179 10.6738 2.0154 9.19649 2.40747C7.7192 2.79954 6.41343 3.66804 5.48266 4.87763C4.55189 6.08721 4.04841 7.56993 4.05068 9.09473C4.04944 10.359 4.39999 11.5989 5.0633 12.6763L5.2443 12.9739L4.54965 15.5503L7.15704 14.8574Z" fill="#2E3947"/>
<path id="Vector_2" fill-rule="evenodd" clip-rule="evenodd" d="M14.1619 10.2797C13.9927 10.1436 13.7946 10.0478 13.5826 9.99958C13.3707 9.95138 13.1505 9.95206 12.9389 10.0016C12.6209 10.1333 12.4155 10.631 12.21 10.8799C12.1667 10.9395 12.103 10.9814 12.031 10.9975C11.9589 11.0137 11.8834 11.0031 11.8186 10.9677C10.6545 10.5129 9.67876 9.67892 9.04983 8.60117C8.99618 8.53391 8.97079 8.44852 8.97901 8.36297C8.98722 8.27742 9.02839 8.19838 9.09385 8.1425C9.32301 7.91622 9.49126 7.63596 9.58304 7.32763C9.60342 6.98754 9.52531 6.64878 9.35802 6.35174C9.22868 5.93531 8.98255 5.5645 8.64869 5.28314C8.47649 5.20589 8.28557 5.17999 8.09895 5.20856C7.91232 5.23713 7.73797 5.31896 7.59693 5.44416C7.35208 5.65488 7.15773 5.91769 7.02819 6.21326C6.89866 6.50882 6.83725 6.8296 6.84847 7.15197C6.84923 7.333 6.87223 7.51326 6.91696 7.68871C7.03055 8.11025 7.20524 8.51299 7.4355 8.88418C7.60163 9.16852 7.78289 9.44379 7.9785 9.70881C8.61422 10.5793 9.41335 11.3184 10.3315 11.885C10.7922 12.173 11.2847 12.4071 11.7991 12.5828C12.3334 12.8244 12.9234 12.9172 13.5063 12.8512C13.8385 12.801 14.1532 12.6702 14.4227 12.4703C14.6923 12.2703 14.9085 12.0074 15.0522 11.7045C15.1366 11.5216 15.1623 11.317 15.1256 11.119C15.0375 10.714 14.4945 10.4749 14.1619 10.2797Z" fill="white"/>
</g>
<path id="Ellipse 63" d="M7.55784 14.5871L7.55777 14.5871L7.55776 14.5871L7.40399 14.5193L7.243 14.5678L4.75323 15.3171L5.43503 12.9307L5.48369 12.7604L5.40463 12.6023L5.40459 12.6022L5.40454 12.6021L5.40448 12.602L5.40446 12.602L5.40315 12.5993L5.39686 12.5864C5.39108 12.5745 5.38221 12.5559 5.37069 12.5313C5.34766 12.4819 5.31407 12.408 5.27343 12.3132C5.19205 12.1233 5.08295 11.8506 4.97381 11.5232C4.7537 10.8629 4.5418 10.0045 4.5418 9.16265C4.5418 5.6417 7.3961 2.78741 10.917 2.78741C14.438 2.78741 17.2923 5.6417 17.2923 9.16265C17.2923 12.6836 14.438 15.5379 10.917 15.5379C10.3515 15.5379 9.5296 15.3149 8.80651 15.0677C8.45416 14.9472 8.14064 14.8265 7.9152 14.7359C7.80263 14.6907 7.7124 14.6531 7.65071 14.627C7.61988 14.6139 7.5962 14.6038 7.58045 14.597L7.5629 14.5893L7.55877 14.5875L7.5579 14.5871L7.55784 14.5871Z" stroke="white" stroke-width="0.910749"/>
</g>
</g>
<defs>
<clipPath id="clip0_773_2851">
<rect width="19.7778" height="19.7778" fill="white" transform="translate(0.617188 0.511719)"/>
</clipPath>
</defs>
</svg>
