<svg width="21" height="21" viewBox="0 0 21 21" fill="none" xmlns="http://www.w3.org/2000/svg">
<g id="Frame 1000003261">
<g id="Logo 8">
<path id="Vector" d="M10.5062 19.4773C15.5126 19.4773 19.571 15.4188 19.571 10.4125C19.571 5.40612 15.5126 1.34766 10.5062 1.34766C5.49987 1.34766 1.44141 5.40612 1.44141 10.4125C1.44141 15.4188 5.49987 19.4773 10.5062 19.4773Z" fill="#2E3947"/>
<path id="Vector_2" d="M5.32703 10.2146C5.32703 10.2146 9.81728 8.30434 11.3746 7.63168C11.9716 7.36264 13.9961 6.50162 13.9961 6.50162C13.9961 6.50162 14.9305 6.12496 14.8526 7.03975C14.8266 7.41645 14.619 8.73481 14.4114 10.1608C14.0999 12.1788 13.7625 14.3851 13.7625 14.3851C13.7625 14.3851 13.7105 15.0039 13.2693 15.1115C12.8281 15.2192 12.1013 14.7349 11.9716 14.6272C11.8677 14.5465 10.0249 13.3357 9.35008 12.7438C9.16839 12.5824 8.96076 12.2595 9.37602 11.8828C10.3104 10.9949 11.4265 9.89179 12.1013 9.19224C12.4128 8.86935 12.7242 8.116 11.4265 9.03078C9.58368 10.3492 7.76682 11.5869 7.76682 11.5869C7.76682 11.5869 7.35152 11.8559 6.57288 11.6137C5.79419 11.3716 4.88576 11.0487 4.88576 11.0487C4.88576 11.0487 4.26287 10.6452 5.32703 10.2146Z" fill="white"/>
</g>
</g>
</svg>
