<svg width="80" height="80" viewBox="0 0 80 80" fill="none" xmlns="http://www.w3.org/2000/svg">
<g filter="url(#filter0_d_203_4174)">
<circle cx="40" cy="37" r="37" fill="#F5A414"/>
</g>
<path d="M56.9439 33.9074C56.9439 29.7791 55.1688 25.82 52.0091 22.9009C48.8494 19.9817 44.564 18.3418 40.0955 18.3418C35.627 18.3418 31.3415 19.9817 28.1819 22.9009C25.0222 25.82 23.2471 29.7791 23.2471 33.9074" stroke="#333333" stroke-width="2.52991" stroke-linecap="round" stroke-linejoin="round"/>
<path d="M19.04 42.5421V38.892C19.0402 38.0242 19.3543 37.1814 19.9324 36.4974C20.5105 35.8135 21.3195 35.3277 22.2307 35.1173L25.8952 34.269C26.0815 34.2261 26.2758 34.223 26.4635 34.2599C26.6512 34.2968 26.8273 34.3727 26.9785 34.4818C27.1298 34.591 27.2521 34.7305 27.3363 34.8898C27.4204 35.0491 27.4642 35.2241 27.4643 35.4014V46.0307C27.4646 46.2084 27.421 46.3838 27.3369 46.5435C27.2527 46.7033 27.1302 46.8432 26.9787 46.9526C26.8272 47.062 26.6507 47.138 26.4625 47.1748C26.2744 47.2116 26.0797 47.2083 25.8931 47.1651L22.2286 46.3187C21.3177 46.1079 20.5093 45.6219 19.9316 44.9381C19.3539 44.2542 19.0401 43.4115 19.04 42.544V42.5421Z" stroke="#333333" stroke-width="2.52991"/>
<path d="M61.1596 42.5421V38.892C61.1594 38.0242 60.8453 37.1814 60.2672 36.4974C59.6891 35.8135 58.8801 35.3277 57.9689 35.1173L54.3044 34.269C54.1182 34.2261 53.9238 34.223 53.7361 34.2599C53.5484 34.2968 53.3723 34.3727 53.2211 34.4818C53.0698 34.591 52.9475 34.7305 52.8634 34.8898C52.7792 35.0491 52.7354 35.2241 52.7354 35.4014V46.0307C52.7351 46.2082 52.7786 46.3834 52.8627 46.5429C52.9467 46.7025 53.069 46.8423 53.2202 46.9516C53.3715 47.061 53.5478 47.1371 53.7356 47.174C53.9235 47.211 54.118 47.208 54.3044 47.1651L57.9689 46.3187C58.8801 46.1083 59.6891 45.6225 60.2672 44.9386C60.8453 44.2546 61.1594 43.4118 61.1596 42.544V42.5421Z" stroke="#333333" stroke-width="2.52991"/>
<path d="M56.9524 47.5288V48.5017C56.9524 49.5337 56.5086 50.5235 55.7187 51.2533C54.9288 51.9831 53.8574 52.3931 52.7403 52.3931H45.3691" stroke="#333333" stroke-width="2.52991"/>
<path d="M43.2556 55.3102H36.9374C36.0996 55.3102 35.296 55.0028 34.7036 54.4554C34.1112 53.9081 33.7783 53.1657 33.7783 52.3917C33.7783 51.6176 34.1112 50.8753 34.7036 50.328C35.296 49.7806 36.0996 49.4731 36.9374 49.4731H43.2556C44.0934 49.4731 44.8969 49.7806 45.4894 50.328C46.0818 50.8753 46.4146 51.6176 46.4146 52.3917C46.4146 53.1657 46.0818 53.9081 45.4894 54.4554C44.8969 55.0028 44.0934 55.3102 43.2556 55.3102Z" stroke="#333333" stroke-width="2.52991"/>
<defs>
<filter id="filter0_d_203_4174" x="0.470085" y="0" width="79.0598" height="79.0598" filterUnits="userSpaceOnUse" color-interpolation-filters="sRGB">
<feFlood flood-opacity="0" result="BackgroundImageFix"/>
<feColorMatrix in="SourceAlpha" type="matrix" values="0 0 0 0 0 0 0 0 0 0 0 0 0 0 0 0 0 0 127 0" result="hardAlpha"/>
<feOffset dy="2.52991"/>
<feGaussianBlur stdDeviation="1.26496"/>
<feComposite in2="hardAlpha" operator="out"/>
<feColorMatrix type="matrix" values="0 0 0 0 0 0 0 0 0 0 0 0 0 0 0 0 0 0 0.25 0"/>
<feBlend mode="normal" in2="BackgroundImageFix" result="effect1_dropShadow_203_4174"/>
<feBlend mode="normal" in="SourceGraphic" in2="effect1_dropShadow_203_4174" result="shape"/>
</filter>
</defs>
</svg>
