<svg width="56" height="48" viewBox="0 0 56 48" fill="none" xmlns="http://www.w3.org/2000/svg">
<path d="M2 5C2 3.34315 3.34315 2 5 2H23.6567C25.3136 2 26.6567 3.34314 26.6567 5V46H4.99999C3.34314 46 2 44.6569 2 43V5Z" stroke="#F5A414" stroke-width="4"/>
<path d="M28.5073 25.0598C28.5073 23.4029 29.8505 22.0598 31.5073 22.0598H50.164C51.8209 22.0598 53.164 23.4029 53.164 25.0598V43.0001C53.164 44.6569 51.8209 46.0001 50.164 46.0001H28.5073V25.0598Z" stroke="#F5A414" stroke-width="4"/>
<path d="M5.73071 9.46971C5.73071 8.98772 6.12145 8.59698 6.60344 8.59698H11.3057C11.7877 8.59698 12.1785 8.98772 12.1785 9.46971V11.3063C12.1785 11.7883 11.7877 12.1791 11.3057 12.1791H6.60344C6.12145 12.1791 5.73071 11.7883 5.73071 11.3063V9.46971Z" fill="#F5A414"/>
<path d="M32.2382 28.0966C32.2382 27.6146 32.6289 27.2239 33.1109 27.2239H37.8132C38.2952 27.2239 38.6859 27.6146 38.6859 28.0966V29.9332C38.6859 30.4152 38.2952 30.8059 37.8132 30.8059H33.1109C32.6289 30.8059 32.2382 30.4152 32.2382 29.9332V28.0966Z" fill="#F5A414"/>
<path d="M5.73071 18.7831C5.73071 18.3012 6.12145 17.9104 6.60344 17.9104H11.3057C11.7877 17.9104 12.1785 18.3012 12.1785 18.7831V20.6198C12.1785 21.1018 11.7877 21.4925 11.3057 21.4925H6.60344C6.12145 21.4925 5.73071 21.1018 5.73071 20.6198V18.7831Z" fill="#F5A414"/>
<path d="M32.2382 36.6936C32.2382 36.2116 32.6289 35.8209 33.1109 35.8209H37.8132C38.2952 35.8209 38.6859 36.2116 38.6859 36.6936V38.5302C38.6859 39.0122 38.2952 39.403 37.8132 39.403H33.1109C32.6289 39.403 32.2382 39.0122 32.2382 38.5302V36.6936Z" fill="#F5A414"/>
<path d="M5.73071 28.0966C5.73071 27.6146 6.12145 27.2239 6.60344 27.2239H11.3057C11.7877 27.2239 12.1785 27.6146 12.1785 28.0966V29.9332C12.1785 30.4152 11.7877 30.8059 11.3057 30.8059H6.60344C6.12145 30.8059 5.73071 30.4152 5.73071 29.9332V28.0966Z" fill="#F5A414"/>
<path d="M5.73071 37.41C5.73071 36.928 6.12145 36.5373 6.60344 36.5373H11.3057C11.7877 36.5373 12.1785 36.928 12.1785 37.41V39.2466C12.1785 39.7286 11.7877 40.1194 11.3057 40.1194H6.60344C6.12145 40.1194 5.73071 39.7286 5.73071 39.2466V37.41Z" fill="#F5A414"/>
<path d="M16.477 9.46971C16.477 8.98772 16.8677 8.59698 17.3497 8.59698H22.052C22.534 8.59698 22.9247 8.98772 22.9247 9.46971V11.3063C22.9247 11.7883 22.534 12.1791 22.052 12.1791H17.3497C16.8677 12.1791 16.477 11.7883 16.477 11.3063V9.46971Z" fill="#F5A414"/>
<path d="M42.9844 28.0966C42.9844 27.6146 43.3752 27.2239 43.8572 27.2239H48.5595C49.0415 27.2239 49.4322 27.6146 49.4322 28.0966V29.9332C49.4322 30.4152 49.0415 30.8059 48.5595 30.8059H43.8572C43.3752 30.8059 42.9844 30.4152 42.9844 29.9332V28.0966Z" fill="#F5A414"/>
<path d="M16.477 18.7831C16.477 18.3012 16.8677 17.9104 17.3497 17.9104H22.052C22.534 17.9104 22.9247 18.3012 22.9247 18.7831V20.6198C22.9247 21.1018 22.534 21.4925 22.052 21.4925H17.3497C16.8677 21.4925 16.477 21.1018 16.477 20.6198V18.7831Z" fill="#F5A414"/>
<path d="M42.9844 36.6936C42.9844 36.2116 43.3752 35.8209 43.8572 35.8209H48.5595C49.0415 35.8209 49.4322 36.2116 49.4322 36.6936V38.5302C49.4322 39.0122 49.0415 39.403 48.5595 39.403H43.8572C43.3752 39.403 42.9844 39.0122 42.9844 38.5302V36.6936Z" fill="#F5A414"/>
<path d="M16.477 28.0966C16.477 27.6146 16.8677 27.2239 17.3497 27.2239H22.052C22.534 27.2239 22.9247 27.6146 22.9247 28.0966V29.9332C22.9247 30.4152 22.534 30.8059 22.052 30.8059H17.3497C16.8677 30.8059 16.477 30.4152 16.477 29.9332V28.0966Z" fill="#F5A414"/>
<path d="M16.477 37.41C16.477 36.928 16.8677 36.5373 17.3497 36.5373H22.052C22.534 36.5373 22.9247 36.928 22.9247 37.41V39.2466C22.9247 39.7286 22.534 40.1194 22.052 40.1194H17.3497C16.8677 40.1194 16.477 39.7286 16.477 39.2466V37.41Z" fill="#F5A414"/>
</svg>
