<svg width="21" height="21" viewBox="0 0 21 21" fill="none" xmlns="http://www.w3.org/2000/svg">
<g id="vuesax/bold/user-octagon">
<g id="user-octagon">
<path id="Vector" d="M16.6948 5.38167L11.7998 2.5551C11.0005 2.09361 10.0116 2.09361 9.204 2.5551L4.31723 5.38167C3.51788 5.84315 3.02344 6.70019 3.02344 7.6314V13.2681C3.02344 14.191 3.51788 15.0481 4.31723 15.5178L9.21224 18.3444C10.0116 18.8058 11.0005 18.8058 11.8081 18.3444L16.7031 15.5178C17.5024 15.0563 17.9969 14.1993 17.9969 13.2681V7.6314C17.9886 6.70019 17.4942 5.85139 16.6948 5.38167ZM10.506 6.60954C11.5691 6.60954 12.4261 7.46658 12.4261 8.52964C12.4261 9.59269 11.5691 10.4497 10.506 10.4497C9.44298 10.4497 8.58594 9.59269 8.58594 8.52964C8.58594 7.47482 9.44298 6.60954 10.506 6.60954ZM12.7146 14.2899H8.29751C7.63001 14.2899 7.2427 13.5483 7.61353 12.9961C8.1739 12.1638 9.26168 11.6034 10.506 11.6034C11.7504 11.6034 12.8382 12.1638 13.3985 12.9961C13.7694 13.54 13.3738 14.2899 12.7146 14.2899Z" fill="#2E3947"/>
</g>
</g>
</svg>
